<svg id="google" xmlns="http://www.w3.org/2000/svg" width="23.112" height="23.112" viewBox="0 0 23.112 23.112">
  <path id="Path_27755" data-name="Path 27755" d="M53.747,302.315A11.427,11.427,0,0,1,36.4,299.376l.75-3.459,3.326-.617a6.137,6.137,0,0,0,5.837,4.32,6.006,6.006,0,0,0,3.575-1.165l3.2.488Z" transform="translate(-34.757 -281.97)" fill="#59c36a"/>
  <path id="Path_27756" data-name="Path 27756" d="M263.434,369.059l-.663-3.372-3.2-.487A6.005,6.005,0,0,1,256,366.365v5.462A11.537,11.537,0,0,0,263.434,369.059Z" transform="translate(-244.444 -348.715)" fill="#00a66c"/>
  <g id="Connected_Home_1_" transform="translate(0 5.706)">
    <g id="Group_13227" data-name="Group 13227">
      <g id="Group_13226" data-name="Group 13226">
        <g id="Group_13225" data-name="Group 13225">
          <path id="Path_27757" data-name="Path 27757" d="M5.462,132.25a6.31,6.31,0,0,0,.257,1.774L1.643,138.1a11.236,11.236,0,0,1,0-11.7l3.271.563.8,3.513A6.31,6.31,0,0,0,5.462,132.25Z" transform="translate(0 -126.4)" fill="#ffda2d"/>
        </g>
      </g>
    </g>
  </g>
  <path id="Path_27758" data-name="Path 27758" d="M253.233,198.708a11.537,11.537,0,0,1-4.121,8.789l-3.859-3.859a5.993,5.993,0,0,0,1.882-2.221h-5.457a.67.67,0,0,1-.677-.677v-4.063a.67.67,0,0,1,.677-.677h10.689a.669.669,0,0,1,.664.555A11.484,11.484,0,0,1,253.233,198.708Z" transform="translate(-230.121 -187.153)" fill="#4086f4"/>
  <path id="Path_27759" data-name="Path 27759" d="M261.457,201.417a5.994,5.994,0,0,1-1.882,2.221l3.859,3.859a11.445,11.445,0,0,0,3.918-10.942.669.669,0,0,0-.664-.555H256v5.417Z" transform="translate(-244.444 -187.153)" fill="#4175df"/>
  <path id="Path_27760" data-name="Path 27760" d="M53.937,3.227a.683.683,0,0,1-.19.5l-2.9,2.884a.663.663,0,0,1-.88.068,6.057,6.057,0,0,0-3.656-1.219,6.137,6.137,0,0,0-5.837,4.32L36.4,5.706A11.42,11.42,0,0,1,53.693,2.726a.712.712,0,0,1,.244.5Z" transform="translate(-34.757 0)" fill="#ff641a"/>
  <path id="Path_27761" data-name="Path 27761" d="M259.656,6.681a.663.663,0,0,0,.88-.068l2.9-2.884a.683.683,0,0,0,.19-.5.712.712,0,0,0-.244-.5A11.521,11.521,0,0,0,256,0V5.462A6.057,6.057,0,0,1,259.656,6.681Z" transform="translate(-244.444 0)" fill="#f03800"/>
</svg>
