<svg xmlns="http://www.w3.org/2000/svg" width="91" height="91" viewBox="0 0 91 91">
  <g id="Group_18041" data-name="Group 18041" transform="translate(-30 -85)">
    <rect id="Rectangle_5937" data-name="Rectangle 5937" width="91" height="91" rx="27" transform="translate(30 85)" fill="#2d1944"/>
    <g id="Group_18040" data-name="Group 18040" transform="translate(-191.146 -204.073)">
      <path id="Subtraction_2" data-name="Subtraction 2" d="M13.641,52.362h0q-.3-3.149-.6-6.3l-.314-3.288a4.4,4.4,0,0,0-1.084-3.027,4.46,4.46,0,0,0-2.571-.815,4.675,4.675,0,0,1-2.523-.763,4.561,4.561,0,0,1-1.265-2.9c-.654-3.7-1.333-7.562-2.018-11.474C2.516,19.525,1.75,15.137.988,10.748l-.072-.413L.838,9.884q-.208-1.2-.416-2.4Q.28,6.671.14,5.856C.125,5.773.108,5.688.091,5.606v0a2.2,2.2,0,0,1-.043-1.04A4.614,4.614,0,0,1,3.282,1.3,8.04,8.04,0,0,1,5.56,1.005a23.778,23.778,0,0,1,2.594.189L41.438,4.886A11.055,11.055,0,0,0,39.686,0a14.366,14.366,0,0,1,3.379,6.63,22.487,22.487,0,0,1,.327,7.685H36.568l-.2,1.042h6.881c-.055.354-.119.717-.19,1.081H36.221l-.2,1.042h6.814c-.078.332-.167.685-.272,1.08H35.874l-.2,1.042h6.591c-.11.366-.227.729-.345,1.08H35.527l-.2,1.042h6.224c-.146.393-.284.747-.421,1.08H35.18l-.2,1.042h5.706a37.159,37.159,0,0,1-6.8,10.24,35.983,35.983,0,0,1-9.772,7.443l1.946-1.874,2.082-2.005c-.443-.015-.9-.024-1.357-.024a39.2,39.2,0,0,0-5,.322A4.618,4.618,0,0,0,20,38.444a4.919,4.919,0,0,0-1.765,2.492C16.638,44.686,15.092,48.53,13.641,52.362ZM19.675,7.884a11.2,11.2,0,1,0,11.2,11.2A11.209,11.209,0,0,0,19.675,7.884Z" transform="translate(235.972 316.164)" fill="#fff" stroke="rgba(0,0,0,0)" stroke-width="1"/>
      <path id="Path_653" data-name="Path 653" d="M209.342,28.594a4.125,4.125,0,0,0-2.368-2.695c-1.378-.57-3.075-.392-4.228-1.339-1.2-.986-1.3-2.755-1.3-4.308q-.007-5.893-.014-11.786a10.663,10.663,0,0,1,.59-4.3,5.392,5.392,0,0,0,.86-2.529A1.931,1.931,0,0,0,200.575.048a2.1,2.1,0,0,0-1.445,2.465,12.828,12.828,0,0,0,.693,1.554,6.382,6.382,0,0,1,.292,2.369c-.014,4.839-.363,9.678-.377,14.517a20.127,20.127,0,0,0-7.665-7.927l.01.007a20.263,20.263,0,0,1,7.574,12.859,26.869,26.869,0,0,1,.224,7.288h4.243V33.7l-.092.521h-4.272c-.048.361-.1.721-.162,1.08h4.3l-.185,1.042h-4.3c-.073.361-.152.721-.236,1.08h4.4l-.185,1.042h-4.478q-.144.543-.3,1.08h4.645l-.186,1.042h-4.785c-.041.125-.08.251-.122.375-.08.236-.163.47-.247.7h5.018l-.185,1.042H197.52a41.952,41.952,0,0,1-5.937,10.431,38.9,38.9,0,0,1-10.227,9.418,28.434,28.434,0,0,0,9.664-6.256,3.768,3.768,0,0,1,.941-.791,3.514,3.514,0,0,1,1.486-.273l9.3-.342a4.816,4.816,0,0,0,3.21-.906,4.813,4.813,0,0,0,1.111-3.042l2.3-19.272a8.157,8.157,0,0,0-.026-3.085" transform="translate(87.816 297.299)" fill="#fff"/>
      <path id="Path_655" data-name="Path 655" d="M126.146,110.1a7.2,7.2,0,1,1-7.2-7.2,7.2,7.2,0,0,1,7.2,7.2" transform="translate(136.7 225.035)" fill="#ff9e00"/>
      <path id="Path_656" data-name="Path 656" d="M141.24,110.1a7.192,7.192,0,0,0-8-7.153c3.362.771,5.471,2.657,6.263,5.751.785,3.064-.285,5.674-2.806,8.092a7.2,7.2,0,0,0,.75-.348,8.829,8.829,0,0,0,1.448-1.028,7.179,7.179,0,0,0,2.343-5.314" transform="translate(121.606 225.035)" fill="#f9830a"/>
      <path id="Path_657" data-name="Path 657" d="M104.537,221.611c-1.06.105-2.125.171-3.2.211a29.435,29.435,0,0,0,3.325.493Z" transform="translate(144.012 141.669)" fill="#ff9e00"/>
      <path id="Path_658" data-name="Path 658" d="M158.725,54.852a21.9,21.9,0,0,0-.749-3.757,17.7,17.7,0,0,0-5.984-9.143c-3.882-2.986-9.066-3.913-13.933-3.366,6.59-.3,12.671,4.666,15.028,10.828s1.5,13.173-.883,19.324A39.439,39.439,0,0,1,138.97,86.21,36.213,36.213,0,0,1,126.2,92.19l-.625,1.488c.127-.009.253-.015.38-.025a29.889,29.889,0,0,0,7.551-1.66,31.763,31.763,0,0,0,3.84-1.669,41.263,41.263,0,0,0,14.485-13.043c4.619-6.529,7.773-14.48,6.9-22.43" transform="translate(126.993 270.306)" fill="#ff9e00"/>
    </g>
  </g>
</svg>
