<svg xmlns="http://www.w3.org/2000/svg" width="11.497" height="20.961" viewBox="0 0 11.497 20.961">
  <g id="smartphone" transform="translate(-113.692)">
    <g id="Group_18025" data-name="Group 18025" transform="translate(113.692)">
      <path id="Path_36939" data-name="Path 36939" d="M123,0h-7.081a2.225,2.225,0,0,0-2.227,2.185V18.779a2.2,2.2,0,0,0,2.205,2.183l7.093-.008a2.19,2.19,0,0,0,2.189-2.183l.01-16.587A2.186,2.186,0,0,0,123,0Zm-4.564,1.31h2.055a.327.327,0,1,1,0,.655h-2.055a.327.327,0,0,1,0-.655Zm-1.235.1a.339.339,0,0,1,.464,0,.328.328,0,0,1-.231.56.335.335,0,0,1-.233-.1.33.33,0,0,1,0-.464Zm2.2,18.9a.98.98,0,1,1,.98-.98A.981.981,0,0,1,119.4,20.312Zm4.775-2.626h-9.334V3.112h9.334Z" transform="translate(-113.692)" fill="#999"/>
    </g>
  </g>
</svg>
